<?xml version="1.0" encoding="utf-8" standalone="no"?>
<!DOCTYPE svg PUBLIC "-//W3C//DTD SVG 1.1//EN" "http://www.w3.org/Graphics/SVG/1.1/DTD/svg11.dtd">
<svg xmlns="http://www.w3.org/2000/svg" xmlns:xl="http://www.w3.org/1999/xlink" version="1.1" viewBox="0 0 205 205" width="205pt" height="205pt" xmlns:dc="http://purl.org/dc/elements/1.1/"><metadata> Produced by OmniGraffle 6.0.5 <dc:date>2014-07-17 11:03Z</dc:date></metadata><defs/><g stroke="none" stroke-opacity="1" stroke-dasharray="none" fill="none" fill-opacity="1"><title>Adaptation</title><g><title>Layer 1</title><rect x="0" y="0" width="100" height="100" fill="#bad41a"/><rect x="0" y="0" width="100" height="100" stroke="black" stroke-linecap="round" stroke-linejoin="round" stroke-width="1"/><rect x="100" y="0" width="100" height="100" fill="#bad41a"/><rect x="100" y="0" width="100" height="100" stroke="black" stroke-linecap="round" stroke-linejoin="round" stroke-width="1"/><rect x="0" y="100" width="100" height="100" fill="#bad41a"/><rect x="0" y="100" width="100" height="100" stroke="black" stroke-linecap="round" stroke-linejoin="round" stroke-width="1"/><rect x="100" y="100" width="50" height="50" fill="#da456b"/><rect x="100" y="100" width="50" height="50" stroke="black" stroke-linecap="round" stroke-linejoin="round" stroke-width="1"/><rect x="150" y="100" width="50" height="50" fill="#da456b"/><rect x="150" y="100" width="50" height="50" stroke="black" stroke-linecap="round" stroke-linejoin="round" stroke-width="1"/><rect x="100" y="150" width="50" height="50" fill="#da456b"/><rect x="100" y="150" width="50" height="50" stroke="black" stroke-linecap="round" stroke-linejoin="round" stroke-width="1"/><rect x="150" y="150" width="25" height="25" fill="#5dbaca"/><rect x="150" y="150" width="25" height="25" stroke="black" stroke-linecap="round" stroke-linejoin="round" stroke-width="1"/><rect x="175" y="150" width="25" height="25" fill="#5dbaca"/><rect x="175" y="150" width="25" height="25" stroke="black" stroke-linecap="round" stroke-linejoin="round" stroke-width="1"/><rect x="150" y="175" width="25" height="25" fill="#5dbaca"/><rect x="150" y="175" width="25" height="25" stroke="black" stroke-linecap="round" stroke-linejoin="round" stroke-width="1"/><rect x="175" y="175" width="12.5" height="12.5" fill="#be844a"/><rect x="175" y="175" width="12.5" height="12.5" stroke="black" stroke-linecap="round" stroke-linejoin="round" stroke-width="1"/><rect x="187.5" y="175" width="12.5" height="12.5" fill="#be844a"/><rect x="187.5" y="175" width="12.5" height="12.5" stroke="black" stroke-linecap="round" stroke-linejoin="round" stroke-width="1"/><rect x="175" y="187.5" width="12.5" height="12.5" fill="#be844a"/><rect x="175" y="187.5" width="12.5" height="12.5" stroke="black" stroke-linecap="round" stroke-linejoin="round" stroke-width="1"/><rect x="187.5" y="187.5" width="12.5" height="12.5" fill="#bc834d"/><rect x="187.5" y="187.5" width="12.5" height="12.5" stroke="black" stroke-linecap="round" stroke-linejoin="round" stroke-width="1"/></g></g></svg>
